# xmcd
#
# Track frame offsets: 
#        150
#        20890
#        50815
#        73272
#        91092
#        115215
#        140275
#        164340
#
# Disc length: 2433 seconds
#
# Revision: 0
# Processed by: cddbd v1.5.2PL0 Copyright (c) Steve Scherf et al.
# Submitted via: ExactAudioCopy v0.99pb4
#
DISCID=71097f08
DTITLE=Matt Taylor - Music
DYEAR=1974
DGENRE=Blues
TTITLE0=Questions And Answers
TTITLE1=Tweetie
TTITLE2=Going Back
TTITLE3=Rearranged
TTITLE4=Everyone Has Their Own Path
TTITLE5=Problems
TTITLE6=Alone
TTITLE7=Fair Dinkum Aussie Blues
EXTD=
EXTT0=
EXTT1=
EXTT2=
EXTT3=
EXTT4=
EXTT5=
EXTT6=
EXTT7=
PLAYORDER=
